{
  "accessors": [
    {
      "bufferView": 2,
      "componentType": 5126,
      "count": 2326,
      "max": [
        4.560393810272217,
        4.1397857666015625,
        1.254372000694275
      ],
      "min": [
        -3.697901964187622,
        -2.6649410724639893,
        -0.19150200486183167
      ],
      "type": "VEC3"
    },
    {
      "bufferView": 2,
      "byteOffset": 27912,
      "componentType": 5126,
      "count": 2326,
      "max": [
        0.9999938607215881,
        0.9998694658279419,
        0.9992007613182068
      ],
      "min": [
        -0.9995886087417603,
        -0.9966450929641724,
        -0.9999973773956299
      ],
      "type": "VEC3"
    },
    {
      "bufferView": 1,
      "componentType": 5126,
      "count": 2326,
      "max": [
        0.860185980796814,
        0.990772008895874
      ],
      "min": [
        0.008617999963462353,
        0.02672399953007698
      ],
      "type": "VEC2"
    },
    {
      "bufferView": 0,
      "componentType": 5125,
      "count": 4662,
      "type": "SCALAR"
    },
    {
      "bufferView": 2,
      "byteOffset": 55824,
      "componentType": 5126,
      "count": 344,
      "max": [
        1.618304967880249,
        2.727236032485962,
        2.5497450828552246
      ],
      "min": [
        0.20542100071907043,
        1.9623630046844482,
        2.357917070388794
      ],
      "type": "VEC3"
    },
    {
      "bufferView": 2,
      "byteOffset": 59952,
      "componentType": 5126,
      "count": 344,
      "max": [
        0.9854231476783752,
        0.9593233466148376,
        0.9425690174102783
      ],
      "min": [
        -0.923916757106781,
        -0.9832080006599426,
        -0.9425063729286194
      ],
      "type": "VEC3"
    },
    {
      "bufferView": 1,
      "byteOffset": 18608,
      "componentType": 5126,
      "count": 344,
      "max": [
        0.9492809772491455,
        0.9884660243988037
      ],
      "min": [
        0.0543069988489151,
        0.021577000617980957
      ],
      "type": "VEC2"
    },
    {
      "bufferView": 0,
      "byteOffset": 18648,
      "componentType": 5125,
      "count": 600,
      "type": "SCALAR"
    },
    {
      "bufferView": 2,
      "byteOffset": 64080,
      "componentType": 5126,
      "count": 191,
      "max": [
        1.4397170543670654,
        2.6688671112060547,
        2.9848721027374268
      ],
      "min": [
        0.20138800144195557,
        2.0205979347229004,
        2.836193084716797
      ],
      "type": "VEC3"
    },
    {
      "bufferView": 2,
      "byteOffset": 66372,
      "componentType": 5126,
      "count": 191,
      "max": [
        0.9888078570365906,
        0.9601873755455017,
        0.9959526658058167
      ],
      "min": [
        -0.9893362522125244,
        -0.9043594598770142,
        -0.9955164790153503
      ],
      "type": "VEC3"
    },
    {
      "bufferView": 1,
      "byteOffset": 21360,
      "componentType": 5126,
      "count": 191,
      "max": [
        0.9745389819145203,
        0.9528800249099731
      ],
      "min": [
        0.03207100182771683,
        0.048158999532461166
      ],
      "type": "VEC2"
    },
    {
      "bufferView": 0,
      "byteOffset": 21048,
      "componentType": 5125,
      "count": 441,
      "type": "SCALAR"
    },
    {
      "bufferView": 2,
      "byteOffset": 68664,
      "componentType": 5126,
      "count": 258,
      "max": [
        2.2120659351348877,
        2.431006908416748,
        3.078594923019409
      ],
      "min": [
        1.6085079908370972,
        1.2346539497375488,
        2.8556020259857178
      ],
      "type": "VEC3"
    },
    {
      "bufferView": 2,
      "byteOffset": 71760,
      "componentType": 5126,
      "count": 258,
      "max": [
        0.8971667885780334,
        0.8909725546836853,
        0.9996602535247803
      ],
      "min": [
        -0.9406909942626953,
        -0.8909725546836853,
        -0.9971261024475098
      ],
      "type": "VEC3"
    },
    {
      "bufferView": 1,
      "byteOffset": 22888,
      "componentType": 5126,
      "count": 258,
      "max": [
        0.854951024055481,
        0.9782000184059143
      ],
      "min": [
        0.03849399834871292,
        0.03020000085234642
      ],
      "type": "VEC2"
    },
    {
      "bufferView": 0,
      "byteOffset": 22812,
      "componentType": 5125,
      "count": 546,
      "type": "SCALAR"
    },
    {
      "bufferView": 2,
      "byteOffset": 74856,
      "componentType": 5126,
      "count": 169,
      "max": [
        -0.005472999997437,
        3.4710230827331543,
        2.9550158977508545
      ],
      "min": [
        -0.4793800115585327,
        2.5613350868225098,
        2.736262083053589
      ],
      "type": "VEC3"
    },
    {
      "bufferView": 2,
      "byteOffset": 76884,
      "componentType": 5126,
      "count": 169,
      "max": [
        0.9856806397438049,
        0.890600323677063,
        0.9891273379325867
      ],
      "min": [
        -0.9535727500915527,
        -0.9508471488952637,
        -0.8178421854972839
      ],
      "type": "VEC3"
    },
    {
      "bufferView": 1,
      "byteOffset": 24952,
      "componentType": 5126,
      "count": 169,
      "max": [
        0.9509959816932678,
        0.962723970413208
      ],
      "min": [
        0.019633999094367027,
        0.037275999784469604
      ],
      "type": "VEC2"
    },
    {
      "bufferView": 0,
      "byteOffset": 24996,
      "componentType": 5125,
      "count": 351,
      "type": "SCALAR"
    },
    {
      "bufferView": 2,
      "byteOffset": 78912,
      "componentType": 5126,
      "count": 302,
      "max": [
        1.4540170431137085,
        2.7618520259857178,
        2.8685619831085205
      ],
      "min": [
        0.5927129983901978,
        2.22337007522583,
        2.280539035797119
      ],
      "type": "VEC3"
    },
    {
      "bufferView": 2,
      "byteOffset": 82536,
      "componentType": 5126,
      "count": 302,
      "max": [
        0.9883078932762146,
        0.9437298774719238,
        0.9984857439994812
      ],
      "min": [
        -0.9848792552947998,
        -0.9437298774719238,
        -0.9984857439994812
      ],
      "type": "VEC3"
    },
    {
      "bufferView": 1,
      "byteOffset": 26304,
      "componentType": 5126,
      "count": 302,
      "max": [
        0.9343029856681824,
        0.962145984172821
      ],
      "min": [
        0.04347899928689003,
        0.02907700091600418
      ],
      "type": "VEC2"
    },
    {
      "bufferView": 0,
      "byteOffset": 26400,
      "componentType": 5125,
      "count": 738,
      "type": "SCALAR"
    },
    {
      "bufferView": 2,
      "byteOffset": 86160,
      "componentType": 5126,
      "count": 242,
      "max": [
        1.1485519409179688,
        2.8525071144104004,
        2.9786219596862793
      ],
      "min": [
        0.34501299262046814,
        2.41110897064209,
        2.6981050968170166
      ],
      "type": "VEC3"
    },
    {
      "bufferView": 2,
      "byteOffset": 89064,
      "componentType": 5126,
      "count": 242,
      "max": [
        0.8873654007911682,
        0.8863712549209595,
        0.9776402115821838
      ],
      "min": [
        -0.8868159055709839,
        -0.9597026109695435,
        -0.9776400923728943
      ],
      "type": "VEC3"
    },
    {
      "bufferView": 1,
      "byteOffset": 28720,
      "componentType": 5126,
      "count": 242,
      "max": [
        0.9538450241088867,
        0.9639059901237488
      ],
      "min": [
        0.051013998687267303,
        0.038957998156547546
      ],
      "type": "VEC2"
    },
    {
      "bufferView": 0,
      "byteOffset": 29352,
      "componentType": 5125,
      "count": 552,
      "type": "SCALAR"
    },
    {
      "bufferView": 2,
      "byteOffset": 91968,
      "componentType": 5126,
      "count": 221,
      "max": [
        1.5005860328674316,
        2.7704460620880127,
        2.797261953353882
      ],
      "min": [
        0.11664199829101563,
        2.02455997467041,
        2.5671989917755127
      ],
      "type": "VEC3"
    },
    {
      "bufferView": 2,
      "byteOffset": 94620,
      "componentType": 5126,
      "count": 221,
      "max": [
        0.9514166712760925,
        0.9372490048408508,
        0.9985275268554688
      ],
      "min": [
        -0.8844045400619507,
        -0.9910711050033569,
        -0.9985275864601135
      ],
      "type": "VEC3"
    },
    {
      "bufferView": 1,
      "byteOffset": 30656,
      "componentType": 5126,
      "count": 221,
      "max": [
        0.9560250043869019,
        0.9692789912223816
      ],
      "min": [
        0.0545089989900589,
        0.037560999393463135
      ],
      "type": "VEC2"
    },
    {
      "bufferView": 0,
      "byteOffset": 31560,
      "componentType": 5125,
      "count": 405,
      "type": "SCALAR"
    },
    {
      "bufferView": 2,
      "byteOffset": 97272,
      "componentType": 5126,
      "count": 5191,
      "max": [
        4.417757987976074,
        5.514429092407227,
        4.708207130432129
      ],
      "min": [
        -1.625393033027649,
        -0.5808060169219971,
        0.020228000357747078
      ],
      "type": "VEC3"
    },
    {
      "bufferView": 2,
      "byteOffset": 159564,
      "componentType": 5126,
      "count": 5191,
      "max": [
        0.999890148639679,
        0.9993601441383362,
        1.0
      ],
      "min": [
        -0.9998900294303894,
        -0.9993601441383362,
        -1.0
      ],
      "type": "VEC3"
    },
    {
      "bufferView": 1,
      "byteOffset": 32424,
      "componentType": 5126,
      "count": 5191,
      "max": [
        0.9919090270996094,
        0.9890940189361572
      ],
      "min": [
        0.004443000070750713,
        0.006240000016987324
      ],
      "type": "VEC2"
    },
    {
      "bufferView": 0,
      "byteOffset": 33180,
      "componentType": 5125,
      "count": 10452,
      "type": "SCALAR"
    },
    {
      "bufferView": 2,
      "byteOffset": 221856,
      "componentType": 5126,
      "count": 440,
      "max": [
        0.2236589938402176,
        3.264831066131592,
        2.636039972305298
      ],
      "min": [
        -0.2404559999704361,
        2.5215020179748535,
        2.2690789699554443
      ],
      "type": "VEC3"
    },
    {
      "bufferView": 2,
      "byteOffset": 227136,
      "componentType": 5126,
      "count": 440,
      "max": [
        0.9973277449607849,
        0.9959233403205872,
        0.9994280934333801
      ],
      "min": [
        -0.9502711296081543,
        -0.9566799998283386,
        -0.9994273781776428
      ],
      "type": "VEC3"
    },
    {
      "bufferView": 1,
      "byteOffset": 73952,
      "componentType": 5126,
      "count": 440,
      "max": [
        0.9270129799842834,
        0.974386990070343
      ],
      "min": [
        0.04241799935698509,
        0.04893900081515312
      ],
      "type": "VEC2"
    },
    {
      "bufferView": 0,
      "byteOffset": 74988,
      "componentType": 5125,
      "count": 960,
      "type": "SCALAR"
    }
  ],
  "asset": {
    "extras": {
      "author": "Nive (https://sketchfab.com/Nive)",
      "license": "CC-BY-4.0 (http://creativecommons.org/licenses/by/4.0/)",
      "source": "https://sketchfab.com/3d-models/mobile-shop-0d034a855c69480a8d38f1afde643726",
      "title": "Mobile shop"
    },
    "generator": "Sketchfab-12.65.0",
    "version": "2.0"
  },
  "bufferViews": [
    {
      "buffer": 0,
      "byteLength": 78828,
      "name": "floatBufferViews",
      "target": 34963
    },
    {
      "buffer": 0,
      "byteLength": 77472,
      "byteOffset": 78828,
      "byteStride": 8,
      "name": "floatBufferViews",
      "target": 34962
    },
    {
      "buffer": 0,
      "byteLength": 232416,
      "byteOffset": 156300,
      "byteStride": 12,
      "name": "floatBufferViews",
      "target": 34962
    }
  ],
  "buffers": [
    {
      "byteLength": 388716,
      "uri": "scene.bin"
    }
  ],
  "images": [
    {
      "uri": "textures/Shader_Carrito_baseColor.png"
    },
    {
      "uri": "textures/Shader_Carrito_emissive.png"
    },
    {
      "uri": "textures/Shader_Dragon_baseColor.png"
    },
    {
      "uri": "textures/Shader_Espada01_baseColor.png"
    },
    {
      "uri": "textures/Shader_Espada03_baseColor.png"
    },
    {
      "uri": "textures/Shader_Espada04_baseColor.png"
    },
    {
      "uri": "textures/Shader_Espada05_baseColor.png"
    },
    {
      "uri": "textures/Shader_HAcha01_baseColor.png"
    },
    {
      "uri": "textures/Shader_Hacha02_baseColor.png"
    },
    {
      "uri": "textures/shader_Daga01_baseColor.png"
    },
    {
      "uri": "textures/shader_Espada02_baseColor.png"
    }
  ],
  "materials": [
    {
      "doubleSided": true,
      "emissiveFactor": [
        1.0,
        1.0,
        1.0
      ],
      "emissiveTexture": {
        "index": 1
      },
      "name": "Shader_Carrito",
      "pbrMetallicRoughness": {
        "baseColorTexture": {
          "index": 0
        },
        "metallicFactor": 0.0
      }
    },
    {
      "doubleSided": true,
      "name": "Shader_Dragon",
      "pbrMetallicRoughness": {
        "baseColorTexture": {
          "index": 2
        },
        "metallicFactor": 0.0
      }
    },
    {
      "doubleSided": true,
      "name": "Shader_Espada01",
      "pbrMetallicRoughness": {
        "baseColorTexture": {
          "index": 3
        },
        "metallicFactor": 0.0
      }
    },
    {
      "doubleSided": true,
      "name": "Shader_Espada03",
      "pbrMetallicRoughness": {
        "baseColorTexture": {
          "index": 4
        },
        "metallicFactor": 0.0
      }
    },
    {
      "doubleSided": true,
      "name": "Shader_Espada04",
      "pbrMetallicRoughness": {
        "baseColorTexture": {
          "index": 5
        },
        "metallicFactor": 0.0
      }
    },
    {
      "doubleSided": true,
      "name": "Shader_Espada05",
      "pbrMetallicRoughness": {
        "baseColorTexture": {
          "index": 6
        },
        "metallicFactor": 0.0
      }
    },
    {
      "doubleSided": true,
      "name": "Shader_HAcha01",
      "pbrMetallicRoughness": {
        "baseColorTexture": {
          "index": 7
        },
        "metallicFactor": 0.0
      }
    },
    {
      "doubleSided": true,
      "name": "Shader_Hacha02",
      "pbrMetallicRoughness": {
        "baseColorTexture": {
          "index": 8
        },
        "metallicFactor": 0.0
      }
    },
    {
      "doubleSided": true,
      "name": "shader_Daga01",
      "pbrMetallicRoughness": {
        "baseColorTexture": {
          "index": 9
        },
        "metallicFactor": 0.0
      }
    },
    {
      "doubleSided": true,
      "name": "shader_Espada02",
      "pbrMetallicRoughness": {
        "baseColorTexture": {
          "index": 10
        },
        "metallicFactor": 0.0
      }
    }
  ],
  "meshes": [
    {
      "name": "Object_0",
      "primitives": [
        {
          "attributes": {
            "NORMAL": 1,
            "POSITION": 0,
            "TEXCOORD_0": 2
          },
          "indices": 3,
          "material": 1,
          "mode": 4
        }
      ]
    },
    {
      "name": "Object_1",
      "primitives": [
        {
          "attributes": {
            "NORMAL": 5,
            "POSITION": 4,
            "TEXCOORD_0": 6
          },
          "indices": 7,
          "material": 2,
          "mode": 4
        }
      ]
    },
    {
      "name": "Object_2",
      "primitives": [
        {
          "attributes": {
            "NORMAL": 9,
            "POSITION": 8,
            "TEXCOORD_0": 10
          },
          "indices": 11,
          "material": 3,
          "mode": 4
        }
      ]
    },
    {
      "name": "Object_3",
      "primitives": [
        {
          "attributes": {
            "NORMAL": 13,
            "POSITION": 12,
            "TEXCOORD_0": 14
          },
          "indices": 15,
          "material": 4,
          "mode": 4
        }
      ]
    },
    {
      "name": "Object_4",
      "primitives": [
        {
          "attributes": {
            "NORMAL": 17,
            "POSITION": 16,
            "TEXCOORD_0": 18
          },
          "indices": 19,
          "material": 5,
          "mode": 4
        }
      ]
    },
    {
      "name": "Object_5",
      "primitives": [
        {
          "attributes": {
            "NORMAL": 21,
            "POSITION": 20,
            "TEXCOORD_0": 22
          },
          "indices": 23,
          "material": 6,
          "mode": 4
        }
      ]
    },
    {
      "name": "Object_6",
      "primitives": [
        {
          "attributes": {
            "NORMAL": 25,
            "POSITION": 24,
            "TEXCOORD_0": 26
          },
          "indices": 27,
          "material": 7,
          "mode": 4
        }
      ]
    },
    {
      "name": "Object_7",
      "primitives": [
        {
          "attributes": {
            "NORMAL": 29,
            "POSITION": 28,
            "TEXCOORD_0": 30
          },
          "indices": 31,
          "material": 9,
          "mode": 4
        }
      ]
    },
    {
      "name": "Object_8",
      "primitives": [
        {
          "attributes": {
            "NORMAL": 33,
            "POSITION": 32,
            "TEXCOORD_0": 34
          },
          "indices": 35,
          "material": 0,
          "mode": 4
        }
      ]
    },
    {
      "name": "Object_9",
      "primitives": [
        {
          "attributes": {
            "NORMAL": 37,
            "POSITION": 36,
            "TEXCOORD_0": 38
          },
          "indices": 39,
          "material": 8,
          "mode": 4
        }
      ]
    }
  ],
  "nodes": [
    {
      "children": [
        1
      ],
      "matrix": [
        1.0,
        0.0,
        0.0,
        0.0,
        0.0,
        2.220446049250313e-16,
        -1.0,
        0.0,
        0.0,
        1.0,
        2.220446049250313e-16,
        0.0,
        0.0,
        0.0,
        0.0,
        1.0
      ],
      "name": "Sketchfab_model"
    },
    {
      "children": [
        2,
        3,
        4,
        5,
        6,
        7,
        8,
        9,
        10,
        11
      ],
      "name": "Carrito_Dragon_Armas.obj.cleaner.materialmerger.gles"
    },
    {
      "mesh": 0,
      "name": "Object_2"
    },
    {
      "mesh": 1,
      "name": "Object_3"
    },
    {
      "mesh": 2,
      "name": "Object_4"
    },
    {
      "mesh": 3,
      "name": "Object_5"
    },
    {
      "mesh": 4,
      "name": "Object_6"
    },
    {
      "mesh": 5,
      "name": "Object_7"
    },
    {
      "mesh": 6,
      "name": "Object_8"
    },
    {
      "mesh": 7,
      "name": "Object_9"
    },
    {
      "mesh": 8,
      "name": "Object_10"
    },
    {
      "mesh": 9,
      "name": "Object_11"
    }
  ],
  "samplers": [
    {
      "magFilter": 9729,
      "minFilter": 9987,
      "wrapS": 10497,
      "wrapT": 10497
    }
  ],
  "scene": 0,
  "scenes": [
    {
      "name": "Sketchfab_Scene",
      "nodes": [
        0
      ]
    }
  ],
  "textures": [
    {
      "sampler": 0,
      "source": 0
    },
    {
      "sampler": 0,
      "source": 1
    },
    {
      "sampler": 0,
      "source": 2
    },
    {
      "sampler": 0,
      "source": 3
    },
    {
      "sampler": 0,
      "source": 4
    },
    {
      "sampler": 0,
      "source": 5
    },
    {
      "sampler": 0,
      "source": 6
    },
    {
      "sampler": 0,
      "source": 7
    },
    {
      "sampler": 0,
      "source": 8
    },
    {
      "sampler": 0,
      "source": 9
    },
    {
      "sampler": 0,
      "source": 10
    }
  ]
}
